<mxfile host="Electron" agent="Mozilla/5.0 (Windows NT 10.0; Win64; x64) AppleWebKit/537.36 (KHTML, like Gecko) draw.io/27.0.5 Chrome/134.0.6998.205 Electron/35.3.0 Safari/537.36" version="27.0.5">
  <diagram name="Page-1" id="WLy3LlunU-63o2ODWJgk">
    <mxGraphModel dx="786" dy="516" grid="1" gridSize="10" guides="1" tooltips="1" connect="1" arrows="1" fold="1" page="1" pageScale="1" pageWidth="850" pageHeight="1100" math="0" shadow="0">
      <root>
        <mxCell id="0" />
        <mxCell id="1" parent="0" />
        <mxCell id="SU-aGhC0ljUNENLBnUP2-2" value="&lt;b&gt;&lt;font style=&quot;font-size: 24px;&quot;&gt;High Level Architecture&lt;/font&gt;&lt;/b&gt;" style="text;html=1;align=center;verticalAlign=middle;resizable=0;points=[];autosize=1;strokeColor=none;fillColor=none;" vertex="1" parent="1">
          <mxGeometry x="30" y="13" width="290" height="40" as="geometry" />
        </mxCell>
        <mxCell id="SU-aGhC0ljUNENLBnUP2-3" value="" style="rounded=0;whiteSpace=wrap;html=1;fillColor=none;strokeColor=light-dark(#171616, #ededed);dashed=1;dashPattern=8 8;" vertex="1" parent="1">
          <mxGeometry x="40" y="100" width="120" height="320" as="geometry" />
        </mxCell>
        <mxCell id="SU-aGhC0ljUNENLBnUP2-4" value="&lt;b&gt;&lt;font style=&quot;font-size: 19px;&quot;&gt;Sources&lt;/font&gt;&lt;/b&gt;" style="text;html=1;align=center;verticalAlign=middle;resizable=0;points=[];autosize=1;strokeColor=none;fillColor=default;" vertex="1" parent="1">
          <mxGeometry x="50" y="82" width="100" height="40" as="geometry" />
        </mxCell>
        <mxCell id="SU-aGhC0ljUNENLBnUP2-5" value="" style="rounded=0;whiteSpace=wrap;html=1;fillColor=none;strokeColor=light-dark(#171616, #ededed);dashed=1;dashPattern=8 8;" vertex="1" parent="1">
          <mxGeometry x="195" y="100" width="405" height="400" as="geometry" />
        </mxCell>
        <mxCell id="SU-aGhC0ljUNENLBnUP2-6" value="&lt;b&gt;&lt;font style=&quot;font-size: 19px;&quot;&gt;Data Warehouse&lt;/font&gt;&lt;/b&gt;" style="text;html=1;align=center;verticalAlign=middle;resizable=0;points=[];autosize=1;strokeColor=none;fillColor=default;" vertex="1" parent="1">
          <mxGeometry x="320" y="82" width="170" height="40" as="geometry" />
        </mxCell>
        <mxCell id="SU-aGhC0ljUNENLBnUP2-7" value="" style="rounded=0;whiteSpace=wrap;html=1;fillColor=none;strokeColor=light-dark(#171616, #ededed);dashed=1;dashPattern=8 8;" vertex="1" parent="1">
          <mxGeometry x="635" y="100" width="120" height="320" as="geometry" />
        </mxCell>
        <mxCell id="SU-aGhC0ljUNENLBnUP2-8" value="&lt;b&gt;&lt;font style=&quot;font-size: 19px;&quot;&gt;Consume&lt;/font&gt;&lt;/b&gt;" style="text;html=1;align=center;verticalAlign=middle;resizable=0;points=[];autosize=1;strokeColor=none;fillColor=default;" vertex="1" parent="1">
          <mxGeometry x="640" y="80" width="110" height="40" as="geometry" />
        </mxCell>
        <mxCell id="SU-aGhC0ljUNENLBnUP2-9" value="Bronze Layer" style="rounded=0;whiteSpace=wrap;html=1;fontSize=10;fillColor=#ffe6cc;strokeColor=#d79b00;fontStyle=1" vertex="1" parent="1">
          <mxGeometry x="220" y="130" width="90" height="20" as="geometry" />
        </mxCell>
        <mxCell id="SU-aGhC0ljUNENLBnUP2-10" value="Silver Layer" style="rounded=0;whiteSpace=wrap;html=1;fontSize=10;fillColor=#f5f5f5;strokeColor=#666666;fontColor=#333333;fontStyle=1" vertex="1" parent="1">
          <mxGeometry x="350" y="130" width="90" height="20" as="geometry" />
        </mxCell>
        <mxCell id="SU-aGhC0ljUNENLBnUP2-11" value="Gold Layer" style="rounded=0;whiteSpace=wrap;html=1;fontSize=10;fillColor=#fff2cc;strokeColor=#d6b656;fontStyle=1" vertex="1" parent="1">
          <mxGeometry x="490" y="130" width="90" height="20" as="geometry" />
        </mxCell>
        <mxCell id="SU-aGhC0ljUNENLBnUP2-14" value="" style="rounded=0;whiteSpace=wrap;html=1;fontSize=10;fillColor=none;strokeColor=#d79b00;" vertex="1" parent="1">
          <mxGeometry x="210" y="160" width="110" height="320" as="geometry" />
        </mxCell>
        <mxCell id="SU-aGhC0ljUNENLBnUP2-15" value="" style="rounded=0;whiteSpace=wrap;html=1;fontSize=10;fillColor=none;strokeColor=#666666;fontColor=#333333;" vertex="1" parent="1">
          <mxGeometry x="340" y="160" width="120" height="320" as="geometry" />
        </mxCell>
        <mxCell id="SU-aGhC0ljUNENLBnUP2-16" value="" style="rounded=0;whiteSpace=wrap;html=1;fontSize=10;fillColor=none;strokeColor=#d6b656;" vertex="1" parent="1">
          <mxGeometry x="480" y="160" width="100" height="320" as="geometry" />
        </mxCell>
        <mxCell id="SU-aGhC0ljUNENLBnUP2-19" value="CRM" style="image;aspect=fixed;html=1;points=[];align=center;fontSize=12;image=img/lib/azure2/general/Folder_Blank.svg;" vertex="1" parent="1">
          <mxGeometry x="75.36" y="190" width="36.97" height="30" as="geometry" />
        </mxCell>
        <mxCell id="SU-aGhC0ljUNENLBnUP2-20" value="" style="image;aspect=fixed;html=1;points=[];align=center;fontSize=12;image=img/lib/azure2/general/Files.svg;" vertex="1" parent="1">
          <mxGeometry x="100.4" y="209" width="19.2" height="21" as="geometry" />
        </mxCell>
        <mxCell id="SU-aGhC0ljUNENLBnUP2-21" value="ERP" style="image;aspect=fixed;html=1;points=[];align=center;fontSize=12;image=img/lib/azure2/general/Folder_Blank.svg;" vertex="1" parent="1">
          <mxGeometry x="75.36" y="270" width="36.97" height="30" as="geometry" />
        </mxCell>
        <mxCell id="SU-aGhC0ljUNENLBnUP2-22" value="" style="image;aspect=fixed;html=1;points=[];align=center;fontSize=12;image=img/lib/azure2/general/Files.svg;" vertex="1" parent="1">
          <mxGeometry x="100.4" y="290" width="19.2" height="21" as="geometry" />
        </mxCell>
        <mxCell id="SU-aGhC0ljUNENLBnUP2-24" value="&lt;b&gt;Object Type:&lt;/b&gt; CSV Files&lt;div&gt;&lt;b&gt;Interface:&lt;/b&gt; files in folder&lt;/div&gt;" style="text;html=1;align=center;verticalAlign=middle;whiteSpace=wrap;rounded=0;fontSize=10;" vertex="1" parent="1">
          <mxGeometry x="45" y="350" width="110" height="30" as="geometry" />
        </mxCell>
        <mxCell id="SU-aGhC0ljUNENLBnUP2-33" value="" style="endArrow=none;html=1;rounded=0;entryX=1.002;entryY=0.719;entryDx=0;entryDy=0;entryPerimeter=0;" edge="1" parent="1">
          <mxGeometry width="50" height="50" relative="1" as="geometry">
            <mxPoint x="46.520000000000024" y="330" as="sourcePoint" />
            <mxPoint x="153.49" y="330.0799999999999" as="targetPoint" />
          </mxGeometry>
        </mxCell>
        <mxCell id="SU-aGhC0ljUNENLBnUP2-34" value="" style="html=1;verticalLabelPosition=bottom;align=center;labelBackgroundColor=#ffffff;verticalAlign=top;strokeWidth=2;strokeColor=#d79b00;shadow=0;dashed=0;shape=mxgraph.ios7.icons.data;fillColor=#ffe6cc;" vertex="1" parent="1">
          <mxGeometry x="240" y="220" width="40" height="40" as="geometry" />
        </mxCell>
        <mxCell id="SU-aGhC0ljUNENLBnUP2-35" value="" style="html=1;verticalLabelPosition=bottom;align=center;labelBackgroundColor=#ffffff;verticalAlign=top;strokeWidth=2;strokeColor=#666666;shadow=0;dashed=0;shape=mxgraph.ios7.icons.data;fillColor=#f5f5f5;fontColor=#333333;" vertex="1" parent="1">
          <mxGeometry x="385" y="220" width="40" height="40" as="geometry" />
        </mxCell>
        <mxCell id="SU-aGhC0ljUNENLBnUP2-36" value="" style="html=1;verticalLabelPosition=bottom;align=center;labelBackgroundColor=#ffffff;verticalAlign=top;strokeWidth=2;strokeColor=#d6b656;shadow=0;dashed=0;shape=mxgraph.ios7.icons.data;fillColor=#fff2cc;" vertex="1" parent="1">
          <mxGeometry x="510" y="220" width="40" height="40" as="geometry" />
        </mxCell>
        <mxCell id="SU-aGhC0ljUNENLBnUP2-37" value="" style="shape=singleArrow;whiteSpace=wrap;html=1;fillColor=#dae8fc;strokeColor=#6c8ebf;" vertex="1" parent="1">
          <mxGeometry x="160" y="230" width="35" height="20" as="geometry" />
        </mxCell>
        <mxCell id="SU-aGhC0ljUNENLBnUP2-38" value="" style="shape=singleArrow;whiteSpace=wrap;html=1;fillColor=#dae8fc;strokeColor=#6c8ebf;" vertex="1" parent="1">
          <mxGeometry x="600" y="230" width="35" height="20" as="geometry" />
        </mxCell>
        <mxCell id="SU-aGhC0ljUNENLBnUP2-39" value="" style="shape=singleArrow;whiteSpace=wrap;html=1;fillColor=#dae8fc;strokeColor=#6c8ebf;" vertex="1" parent="1">
          <mxGeometry x="315" y="230" width="35" height="20" as="geometry" />
        </mxCell>
        <mxCell id="SU-aGhC0ljUNENLBnUP2-41" value="" style="shape=singleArrow;whiteSpace=wrap;html=1;fillColor=#dae8fc;strokeColor=#6c8ebf;" vertex="1" parent="1">
          <mxGeometry x="450" y="230" width="35" height="20" as="geometry" />
        </mxCell>
        <mxCell id="SU-aGhC0ljUNENLBnUP2-42" value="&lt;font&gt;Raw Data&lt;/font&gt;" style="text;html=1;align=center;verticalAlign=middle;whiteSpace=wrap;rounded=0;" vertex="1" parent="1">
          <mxGeometry x="220" y="260" width="80" height="30" as="geometry" />
        </mxCell>
        <mxCell id="SU-aGhC0ljUNENLBnUP2-43" value="Clean,&amp;nbsp;&lt;div&gt;&amp;nbsp;Standardized data&lt;/div&gt;" style="text;html=1;align=center;verticalAlign=middle;whiteSpace=wrap;rounded=0;" vertex="1" parent="1">
          <mxGeometry x="360" y="179" width="80" height="30" as="geometry" />
        </mxCell>
        <mxCell id="SU-aGhC0ljUNENLBnUP2-44" value="Business Ready data" style="text;html=1;align=center;verticalAlign=middle;whiteSpace=wrap;rounded=0;" vertex="1" parent="1">
          <mxGeometry x="495" y="260" width="70" height="30" as="geometry" />
        </mxCell>
        <mxCell id="SU-aGhC0ljUNENLBnUP2-45" value="" style="endArrow=none;html=1;rounded=0;entryX=1.002;entryY=0.719;entryDx=0;entryDy=0;entryPerimeter=0;" edge="1" parent="1">
          <mxGeometry width="50" height="50" relative="1" as="geometry">
            <mxPoint x="206.51000000000005" y="319.5" as="sourcePoint" />
            <mxPoint x="313.48" y="319.5799999999999" as="targetPoint" />
          </mxGeometry>
        </mxCell>
        <mxCell id="SU-aGhC0ljUNENLBnUP2-48" value="" style="endArrow=none;html=1;rounded=0;entryX=1.002;entryY=0.719;entryDx=0;entryDy=0;entryPerimeter=0;" edge="1" parent="1">
          <mxGeometry width="50" height="50" relative="1" as="geometry">
            <mxPoint x="350.00000000000006" y="284.5" as="sourcePoint" />
            <mxPoint x="456.97" y="284.5799999999999" as="targetPoint" />
          </mxGeometry>
        </mxCell>
        <mxCell id="SU-aGhC0ljUNENLBnUP2-49" value="" style="endArrow=none;html=1;rounded=0;entryX=1.002;entryY=0.719;entryDx=0;entryDy=0;entryPerimeter=0;" edge="1" parent="1">
          <mxGeometry width="50" height="50" relative="1" as="geometry">
            <mxPoint x="480.00000000000006" y="290" as="sourcePoint" />
            <mxPoint x="586.97" y="290.0799999999999" as="targetPoint" />
          </mxGeometry>
        </mxCell>
        <mxCell id="SU-aGhC0ljUNENLBnUP2-52" value="&lt;font style=&quot;font-size: 10px;&quot;&gt;&lt;b&gt;Object Type:&lt;/b&gt; Table&lt;/font&gt;&lt;div&gt;&lt;font style=&quot;font-size: 10px;&quot;&gt;&lt;b&gt;Load:&amp;nbsp;&lt;/b&gt;&lt;/font&gt;&lt;/div&gt;&lt;div&gt;&lt;span style=&quot;font-size: 10px; background-color: transparent; color: light-dark(rgb(0, 0, 0), rgb(255, 255, 255));&quot;&gt;Batch Processing&lt;/span&gt;&lt;/div&gt;&lt;div&gt;&lt;span style=&quot;font-size: 10px; background-color: transparent; color: light-dark(rgb(0, 0, 0), rgb(255, 255, 255));&quot;&gt;Full Load (Trunc &amp;amp; Insert)&lt;/span&gt;&lt;/div&gt;&lt;div&gt;&lt;span style=&quot;font-size: 10px; background-color: transparent; color: light-dark(rgb(0, 0, 0), rgb(255, 255, 255));&quot;&gt;&lt;br&gt;&lt;/span&gt;&lt;/div&gt;&lt;div&gt;&lt;span style=&quot;font-size: 10px; background-color: transparent; color: light-dark(rgb(0, 0, 0), rgb(255, 255, 255));&quot;&gt;No Tranformations&lt;/span&gt;&lt;/div&gt;&lt;div&gt;&lt;br&gt;&lt;/div&gt;&lt;div&gt;&lt;span style=&quot;font-size: 10px;&quot;&gt;&lt;b&gt;Data Model: None&lt;/b&gt;&lt;/span&gt;&lt;/div&gt;" style="text;html=1;align=left;verticalAlign=middle;whiteSpace=wrap;rounded=0;" vertex="1" parent="1">
          <mxGeometry x="210" y="340" width="120" height="80" as="geometry" />
        </mxCell>
        <mxCell id="SU-aGhC0ljUNENLBnUP2-53" value="&lt;font style=&quot;font-size: 10px;&quot;&gt;&lt;b&gt;Object Type:&lt;/b&gt;&amp;nbsp;Table&lt;/font&gt;&lt;div style=&quot;&quot;&gt;&lt;font style=&quot;font-size: 10px;&quot;&gt;&lt;b&gt;Load:&amp;nbsp;&lt;/b&gt;&lt;/font&gt;&lt;/div&gt;&lt;div style=&quot;&quot;&gt;&lt;span style=&quot;font-size: 10px; background-color: transparent; color: light-dark(rgb(0, 0, 0), rgb(255, 255, 255));&quot;&gt;Batch Processing&lt;/span&gt;&lt;/div&gt;&lt;div style=&quot;&quot;&gt;&lt;span style=&quot;font-size: 10px; background-color: transparent; color: light-dark(rgb(0, 0, 0), rgb(255, 255, 255));&quot;&gt;Full Load (Trunc &amp;amp; Insert)&lt;/span&gt;&lt;/div&gt;&lt;div style=&quot;&quot;&gt;&lt;span style=&quot;font-size: 10px; background-color: transparent; color: light-dark(rgb(0, 0, 0), rgb(255, 255, 255));&quot;&gt;&lt;br&gt;&lt;/span&gt;&lt;/div&gt;&lt;div style=&quot;&quot;&gt;&lt;span style=&quot;font-size: 10px; background-color: transparent; color: light-dark(rgb(0, 0, 0), rgb(255, 255, 255));&quot;&gt;&lt;b&gt;Tranformations:&lt;/b&gt;&lt;/span&gt;&lt;/div&gt;&lt;div style=&quot;&quot;&gt;&lt;span style=&quot;background-color: transparent; color: light-dark(rgb(0, 0, 0), rgb(255, 255, 255)); font-size: 10px;&quot;&gt;Data Cleaning&lt;/span&gt;&lt;/div&gt;&lt;div style=&quot;&quot;&gt;&lt;span style=&quot;font-size: 10px; background-color: transparent; color: light-dark(rgb(0, 0, 0), rgb(255, 255, 255));&quot;&gt;Data Standardization&lt;/span&gt;&lt;/div&gt;&lt;div style=&quot;&quot;&gt;&lt;span style=&quot;font-size: 10px; background-color: transparent; color: light-dark(rgb(0, 0, 0), rgb(255, 255, 255));&quot;&gt;Data Normalization&lt;/span&gt;&lt;/div&gt;&lt;div style=&quot;&quot;&gt;&lt;span style=&quot;font-size: 10px; background-color: transparent; color: light-dark(rgb(0, 0, 0), rgb(255, 255, 255));&quot;&gt;Derived Columns&lt;/span&gt;&lt;/div&gt;&lt;div style=&quot;&quot;&gt;&lt;span style=&quot;font-size: 10px; background-color: transparent; color: light-dark(rgb(0, 0, 0), rgb(255, 255, 255));&quot;&gt;Data Enrichment&lt;/span&gt;&lt;/div&gt;&lt;div style=&quot;&quot;&gt;&lt;br&gt;&lt;/div&gt;&lt;div style=&quot;&quot;&gt;&lt;span style=&quot;font-size: 10px;&quot;&gt;&lt;b&gt;Data Model: None&lt;/b&gt;&lt;/span&gt;&lt;/div&gt;" style="text;html=1;align=left;verticalAlign=middle;whiteSpace=wrap;rounded=0;" vertex="1" parent="1">
          <mxGeometry x="350" y="350" width="180" height="70" as="geometry" />
        </mxCell>
        <mxCell id="SU-aGhC0ljUNENLBnUP2-54" value="&lt;font style=&quot;font-size: 10px;&quot;&gt;&lt;b&gt;Object Type:&lt;/b&gt;&amp;nbsp;Views&lt;/font&gt;&lt;div&gt;&lt;span style=&quot;font-size: 10px;&quot;&gt;&lt;b&gt;No Load&lt;/b&gt;&lt;/span&gt;&lt;/div&gt;&lt;div&gt;&lt;span style=&quot;font-size: 10px;&quot;&gt;&lt;b&gt;&lt;br&gt;&lt;/b&gt;&lt;/span&gt;&lt;/div&gt;&lt;div&gt;&lt;span style=&quot;background-color: transparent; color: light-dark(rgb(0, 0, 0), rgb(255, 255, 255)); font-size: 10px;&quot;&gt;&lt;b&gt;Tranformations:&lt;/b&gt;&lt;/span&gt;&lt;/div&gt;&lt;div&gt;&lt;span style=&quot;background-color: transparent; color: light-dark(rgb(0, 0, 0), rgb(255, 255, 255)); font-size: 10px;&quot;&gt;Data Integrations&lt;/span&gt;&lt;/div&gt;&lt;div&gt;&lt;span style=&quot;background-color: transparent; color: light-dark(rgb(0, 0, 0), rgb(255, 255, 255)); font-size: 10px;&quot;&gt;Data Aggregations&lt;/span&gt;&lt;/div&gt;&lt;div&gt;&lt;span style=&quot;background-color: transparent; color: light-dark(rgb(0, 0, 0), rgb(255, 255, 255)); font-size: 10px;&quot;&gt;Business Logics&lt;/span&gt;&lt;/div&gt;&lt;div&gt;&lt;br&gt;&lt;/div&gt;&lt;div&gt;&lt;span style=&quot;font-size: 10px;&quot;&gt;&lt;b&gt;Data Model:&amp;nbsp;&lt;/b&gt;&lt;/span&gt;&lt;/div&gt;&lt;div&gt;&lt;span style=&quot;font-size: 10px;&quot;&gt;Star Schema&lt;/span&gt;&lt;/div&gt;&lt;div&gt;&lt;span style=&quot;font-size: 10px;&quot;&gt;Flat Table&lt;/span&gt;&lt;/div&gt;&lt;div&gt;&lt;span style=&quot;font-size: 10px;&quot;&gt;Aggregated Table&lt;/span&gt;&lt;/div&gt;" style="text;html=1;align=left;verticalAlign=middle;whiteSpace=wrap;rounded=0;" vertex="1" parent="1">
          <mxGeometry x="485" y="345" width="120" height="80" as="geometry" />
        </mxCell>
        <mxCell id="SU-aGhC0ljUNENLBnUP2-55" value="" style="image;aspect=fixed;html=1;points=[];align=center;fontSize=12;image=img/lib/azure2/analytics/Power_BI_Embedded.svg;" vertex="1" parent="1">
          <mxGeometry x="669.5" y="122" width="36" height="48" as="geometry" />
        </mxCell>
        <mxCell id="SU-aGhC0ljUNENLBnUP2-60" value="" style="edgeStyle=orthogonalEdgeStyle;rounded=0;orthogonalLoop=1;jettySize=auto;html=1;" edge="1" parent="1" source="SU-aGhC0ljUNENLBnUP2-56" target="SU-aGhC0ljUNENLBnUP2-59">
          <mxGeometry relative="1" as="geometry" />
        </mxCell>
        <mxCell id="SU-aGhC0ljUNENLBnUP2-56" value="" style="sketch=0;html=1;aspect=fixed;strokeColor=none;shadow=0;fillColor=#3B8DF1;verticalAlign=top;labelPosition=center;verticalLabelPosition=bottom;shape=mxgraph.gcp2.big_query" vertex="1" parent="1">
          <mxGeometry x="677" y="220" width="35" height="35.35" as="geometry" />
        </mxCell>
        <mxCell id="SU-aGhC0ljUNENLBnUP2-58" value="" style="image;sketch=0;aspect=fixed;html=1;points=[];align=center;fontSize=12;image=img/lib/mscae/Cognitive_Services.svg;" vertex="1" parent="1">
          <mxGeometry x="669.5" y="320" width="50" height="30" as="geometry" />
        </mxCell>
        <mxCell id="SU-aGhC0ljUNENLBnUP2-59" value="&amp;nbsp;BI &amp;amp; Reporting" style="text;html=1;align=center;verticalAlign=middle;whiteSpace=wrap;rounded=0;" vertex="1" parent="1">
          <mxGeometry x="640" y="170" width="120" height="30" as="geometry" />
        </mxCell>
        <mxCell id="SU-aGhC0ljUNENLBnUP2-61" value="Ad-Hoc SQL&amp;nbsp;&lt;span style=&quot;color: rgba(0, 0, 0, 0); font-family: monospace; font-size: 0px; text-align: start; text-wrap-mode: nowrap;&quot;&gt;%3CmxGraphModel%3E%3Croot%3E%3CmxCell%20id%3D%220%22%2F%3E%3CmxCell%20id%3D%221%22%20parent%3D%220%22%2F%3E%3CmxCell%20id%3D%222%22%20value%3D%22%26amp%3Bnbsp%3BBI%20%26amp%3Bamp%3B%20Reporting%22%20style%3D%22text%3Bhtml%3D1%3Balign%3Dcenter%3BverticalAlign%3Dmiddle%3BwhiteSpace%3Dwrap%3Brounded%3D0%3B%22%20vertex%3D%221%22%20parent%3D%221%22%3E%3CmxGeometry%20x%3D%22640%22%20y%3D%22170%22%20width%3D%22120%22%20height%3D%2230%22%20as%3D%22geometry%22%2F%3E%3C%2FmxCell%3E%3C%2Froot%3E%3C%2FmxGraphModel%3E&lt;/span&gt;Queries" style="text;html=1;align=center;verticalAlign=middle;whiteSpace=wrap;rounded=0;" vertex="1" parent="1">
          <mxGeometry x="634.5" y="260" width="120" height="30" as="geometry" />
        </mxCell>
        <mxCell id="SU-aGhC0ljUNENLBnUP2-62" value="Machine Learning" style="text;html=1;align=center;verticalAlign=middle;whiteSpace=wrap;rounded=0;" vertex="1" parent="1">
          <mxGeometry x="640" y="360" width="120" height="30" as="geometry" />
        </mxCell>
        <mxCell id="SU-aGhC0ljUNENLBnUP2-63" value="" style="image;aspect=fixed;html=1;points=[];align=center;fontSize=12;image=img/lib/azure2/databases/Azure_Database_MySQL_Server.svg;" vertex="1" parent="1">
          <mxGeometry x="186" y="86" width="24" height="32" as="geometry" />
        </mxCell>
      </root>
    </mxGraphModel>
  </diagram>
</mxfile>
